<svg width="24" height="25" viewBox="0 0 24 25" fill="none" xmlns="http://www.w3.org/2000/svg">
<path d="M6.51603 15.1233L5.02603 21.5753C4.97989 21.7707 4.99374 21.9754 5.06577 22.1628C5.1378 22.3502 5.26467 22.5115 5.4298 22.6256C5.59492 22.7398 5.79064 22.8015 5.99138 22.8027C6.19212 22.8039 6.38855 22.7445 6.55503 22.6323L12 19.0023L17.445 22.6323C17.6154 22.7454 17.8162 22.8036 18.0207 22.7991C18.2251 22.7946 18.4232 22.7277 18.5884 22.6072C18.7536 22.4868 18.878 22.3186 18.9448 22.1254C19.0116 21.9321 19.0176 21.7231 18.962 21.5263L17.133 15.1263L21.669 11.0443C21.8143 10.9135 21.9181 10.743 21.9674 10.5538C22.0168 10.3647 22.0097 10.1652 21.9469 9.98004C21.8841 9.7949 21.7685 9.63222 21.6142 9.51212C21.46 9.39202 21.2739 9.31977 21.079 9.3043L15.378 8.8503L12.911 3.3893C12.8324 3.21345 12.7045 3.06413 12.5428 2.95936C12.3812 2.85458 12.1927 2.79883 12 2.79883C11.8074 2.79883 11.6189 2.85458 11.4572 2.95936C11.2956 3.06413 11.1677 3.21345 11.089 3.3893L8.62203 8.8503L2.92103 9.3033C2.72948 9.31847 2.54636 9.38851 2.39358 9.50503C2.2408 9.62155 2.12482 9.77962 2.05952 9.96032C1.99422 10.141 1.98236 10.3367 2.02537 10.524C2.06838 10.7113 2.16443 10.8822 2.30203 11.0163L6.51603 15.1233ZM9.36903 10.7973C9.54752 10.7832 9.71895 10.7214 9.86533 10.6183C10.0117 10.5152 10.1277 10.3746 10.201 10.2113L12 6.2303L13.799 10.2113C13.8724 10.3746 13.9883 10.5152 14.1347 10.6183C14.2811 10.7214 14.4525 10.7832 14.631 10.7973L18.603 11.1123L15.332 14.0563C15.048 14.3123 14.935 14.7063 15.039 15.0743L16.292 19.4593L12.556 16.9683C12.392 16.8582 12.199 16.7995 12.0015 16.7995C11.804 16.7995 11.611 16.8582 11.447 16.9683L7.54303 19.5713L8.59303 15.0253C8.63153 14.8581 8.62636 14.6838 8.57802 14.5192C8.52969 14.3546 8.43981 14.2051 8.31703 14.0853L5.27903 11.1233L9.36903 10.7973Z" fill="#3AC04C"/>
</svg>
