<svg width="24" height="25" viewBox="0 0 24 25" fill="none" xmlns="http://www.w3.org/2000/svg">
<path d="M6.51603 15.1233L5.02603 21.5753C4.97989 21.7707 4.99374 21.9754 5.06577 22.1628C5.1378 22.3502 5.26467 22.5115 5.4298 22.6256C5.59492 22.7398 5.79064 22.8015 5.99138 22.8027C6.19212 22.8039 6.38855 22.7445 6.55503 22.6323L12 19.0023L17.445 22.6323C17.6154 22.7454 17.8162 22.8036 18.0207 22.7991C18.2251 22.7946 18.4232 22.7277 18.5884 22.6072C18.7536 22.4868 18.878 22.3186 18.9448 22.1254C19.0116 21.9321 19.0176 21.7231 18.962 21.5263L17.133 15.1263L21.669 11.0443C21.8143 10.9135 21.9181 10.743 21.9674 10.5538C22.0168 10.3647 22.0097 10.1652 21.9469 9.98004C21.8841 9.7949 21.7685 9.63222 21.6142 9.51212C21.46 9.39202 21.2739 9.31977 21.079 9.3043L15.378 8.8503L12.911 3.3893C12.8324 3.21345 12.7045 3.06413 12.5428 2.95936C12.3812 2.85458 12.1927 2.79883 12 2.79883C11.8074 2.79883 11.6189 2.85458 11.4572 2.95936C11.2956 3.06413 11.1677 3.21345 11.089 3.3893L8.62203 8.8503L2.92103 9.3033C2.72948 9.31847 2.54636 9.38851 2.39358 9.50503C2.2408 9.62155 2.12482 9.77962 2.05952 9.96032C1.99422 10.141 1.98236 10.3367 2.02537 10.524C2.06838 10.7113 2.16443 10.8822 2.30203 11.0163L6.51603 15.1233Z" fill="#3AC04C"/>
</svg>
